<?xml version="1.0" standalone="no"?>
<!DOCTYPE svg PUBLIC "-//W3C//DTD SVG 20010904//EN"
 "http://www.w3.org/TR/2001/REC-SVG-20010904/DTD/svg10.dtd">
<svg version="1.0" xmlns="http://www.w3.org/2000/svg"
 width="600.000000pt" height="600.000000pt" viewBox="0 0 600.000000 600.000000"
 preserveAspectRatio="xMidYMid meet">
<metadata>
Created by potrace 1.14, written by Peter Selinger 2001-2017
</metadata>
<g transform="translate(0.000000,600.000000) scale(0.100000,-0.100000)"
fill="#000000" stroke="none">
<path d="M1967 4654 c-1 -1 -42 -4 -92 -8 -49 -3 -101 -8 -115 -11 -13 -2 -42
-7 -63 -10 -22 -4 -50 -10 -63 -15 -13 -5 -24 -7 -24 -4 0 2 -13 -2 -30 -11
-16 -8 -33 -16 -37 -16 -44 -7 -154 -70 -218 -126 -40 -35 -115 -146 -117
-173 0 -3 -5 -14 -11 -25 -6 -11 -12 -24 -13 -30 -2 -5 -6 -21 -9 -35 -8 -31
-17 -78 -20 -105 -1 -11 -3 -95 -4 -187 l-1 -168 -320 0 c-176 0 -321 -3 -321
-7 -4 -23 -5 -290 -1 -300 3 -10 77 -13 323 -13 l319 0 0 -1040 0 -1040 188 2
187 3 0 1035 0 1035 530 5 530 5 0 155 0 155 -533 3 -534 2 5 168 c4 178 6
188 33 242 55 108 180 177 354 197 86 10 540 2 643 -11 15 -2 28 2 28 8 5 39
4 274 0 286 -3 8 -19 16 -36 17 -190 10 -572 22 -578 17z"/>
<path d="M3888 3770 c-16 -5 -28 -6 -28 -3 0 3 -7 0 -15 -7 -8 -7 -15 -10 -15
-6 0 17 -154 -83 -178 -116 -7 -9 -18 -23 -25 -30 -7 -7 -16 -20 -20 -28 -4
-8 -18 -33 -30 -56 -13 -22 -29 -61 -36 -86 -10 -35 -18 -46 -32 -45 -10 1
-20 6 -22 12 -2 5 -3 81 -2 167 0 100 -3 159 -10 161 -9 3 -299 1 -317 -2 -5
0 -8 -541 -8 -1201 l0 -1200 170 0 170 0 1 848 c1 838 1 878 14 937 15 73 35
124 64 170 31 49 76 95 90 95 6 0 11 4 11 9 0 5 8 11 18 15 78 27 105 32 162
30 159 -5 252 -103 287 -304 3 -14 6 -421 8 -905 1 -484 3 -883 4 -888 0 -4
76 -6 168 -5 l168 3 1 870 c1 479 4 881 8 895 3 14 9 39 12 55 23 107 108 220
194 257 43 19 158 28 200 16 8 -3 27 -8 43 -13 15 -4 27 -11 27 -16 0 -5 5 -9
10 -9 31 0 101 -98 121 -170 28 -101 28 -83 28 -1017 l1 -873 170 0 171 0 -4
973 c-2 534 -7 986 -10 1004 -51 255 -152 391 -332 451 -98 32 -269 24 -368
-16 -16 -7 -30 -12 -33 -12 -11 0 -112 -76 -138 -104 -31 -34 -96 -131 -96
-145 0 -5 -7 -21 -14 -37 -8 -15 -13 -31 -10 -36 3 -4 -5 -6 -18 -5 -18 3 -28
18 -48 73 -34 94 -53 127 -104 177 -37 38 -156 115 -156 103 0 -3 -15 1 -32 8
-36 14 -177 18 -220 6z"/>
</g>
</svg>
